<?xml version="1.0" encoding="UTF-8"?><svg id="hoteleopon-V2-logo" xmlns="http://www.w3.org/2000/svg" viewBox="0 0 1091.17 704.42"><path d="m966.61,254.4c8.54.02,16.99.42,25.03,1.11v76.84c-7.97-.66-16.39-1.07-25.03-1.08v-76.87h0Z"/><path d="m991.63,530.49v-184.25c-8.02-.7-16.48-1.1-25.03-1.11v185.36h25.03Z"/><path d="m966.61,168.27c8.54.02,16.99.42,25.03,1.11v72.23c-7.97-.65-16.39-1.07-25.03-1.08v-72.25h0Z"/><path d="m966.61,99.92v54.48c8.64.02,17.05.43,25.03,1.1v-55.58h-25.03Z"/><path d="m908.64,256.76c-4.61.96-8.8,1.89-12.74,2.78v-78.31c4.73-1.13,9.92-2.28,15.79-3.51,6.8-1.4,13.92-2.33,21.18-2.84v78.64c-8.18.57-16.33,1.6-24.23,3.24"/><path d="m932.86,367.41v85.41h-36.95v-79.03c4.73-1.13,9.91-2.3,15.79-3.51,6.78-1.42,13.91-2.33,21.16-2.87"/><path d="m911.69,271.49c6.8-1.41,13.92-2.33,21.16-2.87v83.68c-8.17.57-16.31,1.59-24.21,3.23-4.61.96-8.79,1.89-12.74,2.8v-83.33c4.74-1.13,9.93-2.28,15.8-3.51"/><path d="m895.91,99.92v65.89c3.94-.91,8.12-1.84,12.73-2.8,7.9-1.64,16.06-2.68,24.23-3.23v-59.86h-36.95Z"/><path d="m869.8,379.68v73.14h-53.18v-46.19c4.79-2.69,9.08-5.14,13-7.39,15.8-9.03,25.61-14.63,40.18-19.55"/><path d="m822.15,287.41c-1.76,1.01-3.62,2.08-5.54,3.16v-76.47c4.78-2.69,9.09-5.14,13.01-7.39,15.79-9.05,25.59-14.63,40.17-19.55v77.95c-18.69,5.76-29.61,11.99-47.65,22.31"/><path d="m829.62,300.47c15.8-9.05,25.61-14.63,40.18-19.55v82.95c-18.67,5.76-29.61,11.99-47.65,22.31-1.74,1-3.6,2.08-5.52,3.16v-81.49c4.78-2.67,9.08-5.14,13-7.38"/><path d="m829.62,102.92c-3.92,2.23-8.23,4.69-13,7.38v86.51c1.91-1.09,3.76-2.15,5.52-3.16,18.05-10.32,28.97-16.55,47.66-22.31v-71.42h-34.9c-1.73.99-3.38,1.92-5.28,3.01"/><path d="m790.52,452.81h-29.83v-23.44c11.62-5.57,21.65-11.08,29.83-15.69v39.13h0Z"/><path d="m790.52,314.92v81.5l-3.43,1.94c-7.13,4.03-16.03,9.05-26.4,14.25v-82.01c11.62-5.57,21.65-11.09,29.83-15.68"/><path d="m760.69,313.84v-76.99c11.62-5.57,21.66-11.09,29.83-15.68v76.48l-3.43,1.94c-7.12,4.03-16.03,9.05-26.4,14.25"/><path d="m790.53,117.36c-8.18,4.61-18.22,10.11-29.84,15.68v87.03c10.38-5.21,19.29-10.23,26.4-14.25l3.44-1.94v-86.52h0Z"/><path d="m760.68,99.92v16.38c10.38-5.21,19.29-10.23,26.4-14.25l3.45-1.94v-.19h-29.85Z"/><path d="m734.59,422.83c-17.48,7.31-37.62,13.94-59.67,17.51v-83.57c21.94-3.32,42.03-9.47,59.67-16.46v82.51h0Z"/><path d="m734.59,324.06c-17.48,7.31-37.62,13.94-59.67,17.51v-78.55c21.94-3.32,42.03-9.47,59.67-16.45v77.49h0Z"/><path d="m734.59,452.81h-44.96c16.25-3.48,31.36-8.34,44.96-13.74v13.74h0Z"/><path d="m734.59,142.77c-17.65,6.98-37.74,13.14-59.67,16.46v88.57c22.06-3.56,42.18-10.18,59.67-17.49v-87.53h0Z"/><path d="m674.92,99.92v44.1c22.06-3.56,42.18-10.19,59.67-17.51v-26.59h-59.67Z"/><path d="m600.47,317.39c-.02,44.93-.02,89.86-.03,134.79h48.4c0-61.57-.02-123.15-.02-184.74,0-55.83.02-111.68.02-167.52h-48.35v30.61c0,62.3-.02,124.58-.02,186.86"/><polygon points="554.22 452.19 574.34 452.19 574.34 99.92 554.22 99.92 554.22 452.19 554.22 452.19"/><polygon points="508.03 452.19 528.13 452.19 528.13 99.92 508.03 99.92 508.03 452.19 508.03 452.19"/><path d="m433.56,267.45c0,61.59,0,123.16-.02,184.74h48.39c0-44.93-.02-89.86-.02-134.79-.02-62.28-.02-124.57-.03-186.86,0-10.2.02-20.41.02-30.61h-48.35v167.52h0Z"/><path d="m347.79,422.83c17.48,7.31,37.62,13.94,59.67,17.51v-83.57c-21.95-3.32-42.04-9.47-59.67-16.46v82.51h0Z"/><path d="m347.79,324.06c17.48,7.31,37.62,13.94,59.67,17.51v-78.55c-21.95-3.32-42.04-9.47-59.67-16.45v77.49h0Z"/><path d="m347.79,452.81h44.96c-16.25-3.48-31.35-8.34-44.96-13.74v13.74h0Z"/><path d="m407.46,159.23c-21.94-3.32-42.04-9.47-59.67-16.46v87.53c17.48,7.31,37.62,13.93,59.67,17.49v-88.57h0Z"/><path d="m347.79,99.92v26.59c17.48,7.32,37.62,13.96,59.67,17.51v-44.1h-59.67Z"/><path d="m291.86,452.81h29.83v-23.44c-11.62-5.57-21.65-11.08-29.83-15.69v39.13h0Z"/><path d="m291.86,314.92v81.5l3.43,1.94c7.13,4.03,16.03,9.05,26.4,14.25v-82.01c-11.62-5.57-21.65-11.09-29.83-15.68"/><path d="m321.7,313.84v-76.99c-11.62-5.57-21.66-11.09-29.83-15.68v76.48l3.43,1.94c7.12,4.03,16.03,9.05,26.4,14.25"/><path d="m321.69,133.05c-11.62-5.57-21.65-11.08-29.83-15.68v86.52l3.45,1.94c7.11,4.02,16.01,9.04,26.38,14.25v-87.03h0Z"/><path d="m291.86,99.92v.19l3.44,1.94c7.11,4.03,16.02,9.04,26.39,14.25v-16.38h-29.83Z"/><path d="m212.59,379.68v73.14h53.18v-46.19c-4.79-2.69-9.08-5.14-13-7.39-15.8-9.03-25.61-14.63-40.18-19.55"/><path d="m260.23,287.41c1.76,1.01,3.62,2.08,5.54,3.16v-76.47c-4.78-2.69-9.09-5.14-13.01-7.39-15.79-9.05-25.59-14.63-40.18-19.55v77.95c18.69,5.76,29.6,11.99,47.65,22.31"/><path d="m252.77,300.47c-15.8-9.05-25.61-14.63-40.18-19.55v82.95c18.67,5.76,29.61,11.99,47.65,22.31,1.74,1,3.6,2.08,5.52,3.16v-81.49c-4.78-2.67-9.08-5.14-13-7.38"/><path d="m212.59,99.92v71.42c18.67,5.76,29.59,11.99,47.63,22.31,1.77,1.01,3.62,2.08,5.54,3.16v-86.51c-4.79-2.69-9.08-5.14-13-7.38-1.91-1.09-3.56-2.01-5.31-3.01h-34.88Z"/><path d="m173.75,256.76c4.61.96,8.79,1.89,12.74,2.78v-78.31c-4.73-1.13-9.92-2.28-15.8-3.51-6.8-1.4-13.92-2.33-21.17-2.84v78.64c8.18.57,16.33,1.6,24.23,3.24"/><path d="m149.53,367.41v85.41h36.95v-79.03c-4.73-1.13-9.91-2.3-15.79-3.51-6.78-1.42-13.91-2.33-21.16-2.87"/><path d="m170.7,271.49c-6.79-1.41-13.92-2.33-21.16-2.87v83.68c8.17.57,16.31,1.59,24.21,3.23,4.61.96,8.8,1.89,12.75,2.8v-83.33c-4.74-1.13-9.93-2.28-15.8-3.51"/><path d="m149.54,99.92v59.86c8.17.55,16.31,1.59,24.21,3.23,4.63.96,8.8,1.89,12.74,2.8v-65.89h-36.95Z"/><path d="m115.77,254.4c-8.54.02-16.99.42-25.03,1.11v76.84c7.98-.66,16.4-1.07,25.03-1.08v-76.87h0Z"/><path d="m115.77,530.49v-185.36c-8.54.01-16.99.42-25.03,1.11v184.25h25.03Z"/><path d="m115.77,168.27c-8.54.02-16.99.42-25.03,1.11v72.23c7.98-.65,16.4-1.07,25.03-1.08v-72.25h0Z"/><path d="m90.75,99.92v55.58c7.96-.66,16.39-1.08,25.03-1.1v-54.48h-25.03Z"/><polygon points="1080.38 125.75 1091.17 125.75 1091.17 0 935.7 0 935.7 10.79 1080.38 10.79 1080.38 125.75 1080.38 125.75"/><polygon points="1080.38 575.52 1080.38 672.93 935.7 672.93 935.7 683.73 1091.17 683.73 1091.17 575.52 1080.38 575.52 1080.38 575.52"/><polygon points="10.79 575.52 0 575.52 0 683.73 155.48 683.73 155.48 672.93 10.79 672.93 10.79 575.52 10.79 575.52"/><polygon points="0 0 0 125.75 10.79 125.75 10.79 10.79 155.48 10.79 155.48 0 0 0 0 0"/><path d="m414.65,667.63h-6.44c-.33-6.53-3.1-9.8-8.33-9.8-2.05,0-3.75.51-5.08,1.54-1.33,1.03-2.32,2.59-2.97,4.69-.65,2.1-1.08,4.26-1.29,6.48-.21,2.22-.32,4.96-.32,8.22s.1,6.01.32,8.23c.21,2.22.64,4.38,1.29,6.47.65,2.1,1.65,3.66,2.97,4.69,1.33,1.03,3.02,1.54,5.08,1.54,1.63,0,3.04-.39,4.23-1.16,1.19-.77,2.09-1.7,2.7-2.8.61-1.1,1.08-2.49,1.44-4.17.35-1.68.57-3.15.67-4.41.09-1.26.14-2.71.14-4.34h-9.87v-5.04h15.47v25.97h-4.62v-6.79h-.14c-.7,2.24-2.02,4.09-3.96,5.57-1.94,1.47-4.21,2.21-6.83,2.21s-4.71-.49-6.58-1.47c-1.87-.98-3.35-2.24-4.44-3.78-1.1-1.54-1.97-3.48-2.62-5.81-.65-2.33-1.1-4.67-1.33-7-.23-2.33-.35-4.97-.35-7.91s.12-5.33.35-7.59c.23-2.26.69-4.58,1.37-6.96.68-2.38,1.59-4.36,2.73-5.95,1.14-1.59,2.71-2.89,4.69-3.92,1.98-1.03,4.3-1.54,6.96-1.54,1.96,0,3.73.23,5.32.7,1.59.47,2.88,1.05,3.89,1.75,1,.7,1.88,1.58,2.62,2.62.75,1.05,1.29,2,1.65,2.83s.63,1.81.84,2.91.34,1.89.39,2.38c.05.49.07,1.04.07,1.64Z"/><path d="m436.07,703.75v-49.98h25.83v5.46h-19.67v15.68h18.55v5.46h-18.55v17.92h20.51v5.46h-26.67Z"/><path d="m482.48,703.75v-49.98h16.17c3.97,0,7.09,1.11,9.38,3.33,2.29,2.22,3.43,5.29,3.43,9.21,0,3.08-.61,5.79-1.82,8.12-1.21,2.33-3.17,3.83-5.88,4.48v.14c2.1.23,3.77,1.12,5.01,2.66,1.24,1.54,1.92,3.43,2.06,5.67l.42,8.54c.14,2.57.42,4.39.84,5.46.42,1.07,1.03,1.87,1.82,2.38h-7.42c-.89-.89-1.45-3.29-1.68-7.21l-.42-7.77c-.14-2.15-.64-3.79-1.51-4.93-.86-1.14-1.73-1.82-2.59-2.03-.86-.21-1.97-.31-3.33-.31h-8.33v22.26h-6.16Zm6.16-44.94v17.64h6.09c1.07,0,1.92-.02,2.56-.07.63-.05,1.49-.23,2.59-.56,1.1-.33,1.97-.81,2.62-1.44.65-.63,1.24-1.6,1.75-2.9.51-1.31.77-2.87.77-4.69,0-2.47-.79-4.42-2.38-5.84-1.59-1.42-3.8-2.14-6.65-2.14h-7.35Z"/><path d="m532.81,703.75v-49.98h6.16v44.52h20.3v5.46h-26.46Z"/><path d="m573.27,703.75l14.42-49.98h8.26l13.44,49.98h-6.44l-3.57-13.72h-15.96l-3.71,13.72h-6.44Zm18.34-42.91l-6.93,24.15h13.44l-6.37-24.15h-.14Z"/><path d="m651.04,686.6h6.44c-.33,5.37-1.68,9.73-4.06,13.09-2.38,3.36-6.09,5.04-11.13,5.04-2.75,0-5.13-.51-7.14-1.54-2.01-1.03-3.57-2.33-4.69-3.92-1.12-1.59-2.02-3.58-2.7-5.98-.68-2.4-1.11-4.71-1.29-6.93s-.28-4.75-.28-7.6.12-5.33.35-7.59c.23-2.26.69-4.58,1.37-6.96.68-2.38,1.59-4.36,2.73-5.95,1.14-1.59,2.71-2.89,4.69-3.92,1.98-1.03,4.3-1.54,6.96-1.54,9.57,0,14.49,5.18,14.77,15.54h-6.44c-.19-7-2.96-10.5-8.33-10.5-2.05,0-3.75.51-5.08,1.54-1.33,1.03-2.32,2.59-2.97,4.69-.65,2.1-1.08,4.26-1.29,6.48-.21,2.22-.32,4.96-.32,8.22s.11,6.01.32,8.23c.21,2.22.64,4.38,1.29,6.47.65,2.1,1.64,3.66,2.97,4.69s3.02,1.54,5.08,1.54c1.77,0,3.27-.37,4.48-1.12,1.21-.75,2.1-1.82,2.66-3.22.56-1.4.96-2.75,1.19-4.06.23-1.31.37-2.87.42-4.69Z"/><path d="m706.69,653.77v49.98h-6.16v-24.08h-17.15v24.08h-6.16v-49.98h6.16v20.44h17.15v-20.44h6.16Z"/><path d="m164.67,530.21v8.35h.23c1.62-3.02,3.6-5.43,5.92-7.25,2.32-1.82,5.14-2.73,8.47-2.73.46,0,.95.02,1.45.06.5.04.99.1,1.45.17v15.31c-.85-.08-1.68-.13-2.49-.17-.81-.04-1.64-.06-2.49-.06-1.39,0-2.78.19-4.18.58-1.39.39-2.67,1.03-3.83,1.91-1.16.89-2.09,2.05-2.78,3.48-.7,1.43-1.04,3.19-1.04,5.28v37.47h-16.01v-62.41h15.31Z"/><path d="m189.61,547.84c0-3.63.58-6.67,1.74-9.11,1.16-2.44,2.73-4.41,4.7-5.92,1.97-1.51,4.29-2.59,6.96-3.25,2.67-.66,5.51-.99,8.53-.99,4.79,0,8.66.46,11.6,1.39,2.94.93,5.22,2.24,6.84,3.94,1.62,1.7,2.73,3.73,3.31,6.09.58,2.36.87,4.93.87,7.71v32.83c0,2.94.13,5.22.41,6.84.27,1.62.79,3.36,1.57,5.22h-15.31c-.54-1-.95-2.07-1.22-3.19-.27-1.12-.52-2.22-.75-3.31h-.23c-1.86,3.25-4,5.36-6.44,6.32s-5.59,1.45-9.45,1.45c-2.78,0-5.14-.48-7.08-1.45-1.93-.97-3.48-2.3-4.64-4-1.16-1.7-2.01-3.61-2.55-5.74-.54-2.13-.81-4.23-.81-6.32,0-2.94.31-5.47.93-7.6.62-2.13,1.57-3.94,2.84-5.45,1.28-1.51,2.9-2.76,4.87-3.77,1.97-1,4.35-1.89,7.13-2.67l9.05-2.44c2.4-.62,4.06-1.47,4.99-2.55.93-1.08,1.39-2.67,1.39-4.76,0-2.4-.56-4.27-1.68-5.63-1.12-1.35-3.04-2.03-5.74-2.03-2.48,0-4.33.74-5.57,2.2-1.24,1.47-1.86,3.44-1.86,5.92v1.74h-14.38v-1.51Zm19.26-39.67v13.69h-12.99v-13.69h12.99Zm6.5,55.28c-1.24.5-2.36.87-3.36,1.1-3.25.7-5.57,1.86-6.96,3.48s-2.09,3.83-2.09,6.61c0,2.4.46,4.45,1.39,6.15.93,1.7,2.47,2.55,4.64,2.55,1.08,0,2.2-.17,3.36-.52,1.16-.35,2.22-.91,3.19-1.68.97-.77,1.76-1.78,2.38-3.02.62-1.24.93-2.71.93-4.41v-12.3c-1.08.85-2.24,1.53-3.48,2.03Zm13.46-55.28v13.69h-12.99v-13.69h12.99Z"/><path d="m279.05,586c-1.78,2.94-3.77,4.99-5.97,6.15s-4.93,1.74-8.18,1.74c-6.57,0-11.41-2.51-14.5-7.54-3.09-5.03-4.64-13.34-4.64-24.94s1.55-19.97,4.64-25.11c3.09-5.14,7.93-7.71,14.5-7.71,3.02,0,5.59.62,7.71,1.86,2.13,1.24,4.04,3.09,5.74,5.57h.23v-26.22h16.01v82.83h-15.31v-6.61h-.23Zm-15.72-9.22c1.04,3.44,3.31,5.16,6.79,5.16s5.86-1.72,6.9-5.16c1.04-3.44,1.57-8.56,1.57-15.37s-.52-11.93-1.57-15.37c-1.04-3.44-3.35-5.16-6.9-5.16s-5.74,1.72-6.79,5.16c-1.04,3.44-1.57,8.57-1.57,15.37s.52,11.93,1.57,15.37Z"/><path d="m320.69,568.83c0,1.86.13,3.65.41,5.39.27,1.74.71,3.29,1.33,4.64.62,1.35,1.43,2.44,2.44,3.25,1,.81,2.24,1.22,3.71,1.22,2.71,0,4.68-.97,5.92-2.9,1.24-1.93,2.09-4.87,2.55-8.82h14.38c-.31,7.27-2.24,12.8-5.8,16.59-3.56,3.79-9.16,5.68-16.82,5.68-5.8,0-10.32-.97-13.57-2.9s-5.65-4.48-7.19-7.66c-1.55-3.17-2.49-6.73-2.84-10.67-.35-3.94-.52-7.89-.52-11.83,0-4.18.29-8.2.87-12.06.58-3.87,1.74-7.31,3.48-10.33,1.74-3.02,4.23-5.41,7.48-7.19,3.25-1.78,7.58-2.67,12.99-2.67,4.64,0,8.45.75,11.43,2.26,2.98,1.51,5.32,3.64,7.02,6.38,1.7,2.75,2.86,6.07,3.48,9.98.62,3.91.93,8.26.93,13.05v3.6h-31.67v4.99Zm15.89-20.82c-.23-1.82-.64-3.36-1.22-4.64s-1.39-2.24-2.44-2.9c-1.04-.66-2.38-.99-4-.99s-2.96.37-4,1.1c-1.04.74-1.88,1.7-2.49,2.9-.62,1.2-1.06,2.53-1.33,4-.27,1.47-.41,2.94-.41,4.41v2.44h16.36c-.08-2.4-.23-4.5-.46-6.32Z"/><path d="m377.77,530.21v8.35h.23c1.62-3.02,3.6-5.43,5.92-7.25,2.32-1.82,5.14-2.73,8.47-2.73.46,0,.95.02,1.45.06.5.04.99.1,1.45.17v15.31c-.85-.08-1.68-.13-2.49-.17-.81-.04-1.64-.06-2.49-.06-1.39,0-2.78.19-4.18.58-1.39.39-2.67,1.03-3.83,1.91-1.16.89-2.09,2.05-2.78,3.48-.7,1.43-1.04,3.19-1.04,5.28v37.47h-16.01v-62.41h15.31Z"/><path d="m419.41,509.79v82.83h-16.01v-82.83h16.01Z"/><path d="m431.59,547.26c.85-4.1,2.24-7.52,4.18-10.27,1.93-2.74,4.47-4.83,7.6-6.26,3.13-1.43,6.98-2.15,11.54-2.15,4.79-.08,8.78.56,11.95,1.91,3.17,1.35,5.68,3.42,7.54,6.21s3.17,6.23,3.94,10.32c.77,4.1,1.16,8.89,1.16,14.38s-.43,10.05-1.28,14.15c-.85,4.1-2.24,7.52-4.18,10.27-1.93,2.75-4.47,4.78-7.6,6.09-3.13,1.31-6.98,1.97-11.54,1.97-4.8.08-8.78-.52-11.95-1.8-3.17-1.28-5.68-3.29-7.54-6.03-1.86-2.75-3.17-6.19-3.94-10.33-.77-4.14-1.16-8.91-1.16-14.33s.42-10.05,1.28-14.15Zm14.96,22.97c.15,2.71.52,5.03,1.1,6.96.58,1.93,1.45,3.44,2.61,4.52,1.16,1.08,2.71,1.62,4.64,1.62,3.25,0,5.49-1.7,6.73-5.1,1.24-3.4,1.86-9.01,1.86-16.82s-.62-13.42-1.86-16.82c-1.24-3.4-3.48-5.1-6.73-5.1-1.93,0-3.48.54-4.64,1.62-1.16,1.08-2.03,2.59-2.61,4.52-.58,1.93-.95,4.25-1.1,6.96-.16,2.71-.23,5.65-.23,8.82s.08,6.11.23,8.82Z"/><path d="m536.57,589.48c0,8.04-1.99,14.07-5.97,18.1-3.98,4.02-10.65,6.03-20.01,6.03-6.81,0-12.05-1.45-15.72-4.35-3.67-2.9-5.51-7.02-5.51-12.35h15.31c0,2.01.81,3.6,2.44,4.76.77.54,1.6.97,2.49,1.28.89.31,1.84.46,2.84.46,3.25,0,5.53-1.04,6.84-3.13,1.31-2.09,1.97-4.68,1.97-7.77v-8.24h-.23c-1.62,2.32-3.62,4.18-5.97,5.57-2.36,1.39-4.81,2.09-7.37,2.09-6.34,0-11.12-2.42-14.33-7.25-3.21-4.83-4.81-12.93-4.81-24.3,0-3.63.21-7.35.64-11.14.42-3.79,1.31-7.21,2.67-10.27,1.35-3.05,3.32-5.55,5.92-7.48,2.59-1.93,6.05-2.9,10.38-2.9,2.24,0,4.56.62,6.96,1.86,2.4,1.24,4.37,3.48,5.92,6.73h.23v-6.96h15.31v59.28Zm-31.73-19.95c.19,1.93.58,3.65,1.16,5.16.58,1.51,1.39,2.71,2.44,3.6,1.04.89,2.42,1.33,4.12,1.33s3.11-.44,4.23-1.33c1.12-.89,2.01-2.11,2.67-3.65.66-1.55,1.12-3.42,1.39-5.63.27-2.2.41-4.62.41-7.25,0-7.58-.6-12.95-1.8-16.12-1.2-3.17-3.38-4.76-6.55-4.76-1.78,0-3.21.39-4.29,1.16-1.08.77-1.93,2.03-2.55,3.77-.62,1.74-1.03,4.06-1.22,6.96-.19,2.9-.29,6.44-.29,10.61,0,2.17.1,4.22.29,6.15Z"/><path d="m566.15,508.86v13.69h-16.01v-13.69h16.01Zm0,21.34v62.41h-16.01v-62.41h16.01Z"/><path d="m590.86,574.29c0,2.71.71,4.89,2.15,6.55,1.43,1.66,3.5,2.49,6.21,2.49,2.47,0,4.45-.62,5.92-1.86,1.47-1.24,2.2-3.09,2.2-5.57,0-2.01-.58-3.54-1.74-4.58s-2.51-1.88-4.06-2.49l-11.25-4.06c-4.41-1.55-7.73-3.73-9.98-6.55-2.24-2.82-3.36-6.44-3.36-10.85,0-2.55.42-4.97,1.28-7.25.85-2.28,2.2-4.27,4.06-5.97,1.86-1.7,4.23-3.05,7.13-4.06,2.9-1,6.4-1.51,10.5-1.51,7.27,0,12.64,1.55,16.12,4.64,3.48,3.09,5.22,7.46,5.22,13.11v2.55h-14.38c0-3.25-.52-5.63-1.57-7.13s-2.88-2.26-5.51-2.26c-2.01,0-3.77.56-5.28,1.68-1.51,1.12-2.26,2.8-2.26,5.05,0,1.55.48,2.94,1.45,4.18.97,1.24,2.8,2.28,5.51,3.13l9.63,3.25c5.03,1.7,8.58,3.93,10.67,6.67,2.09,2.75,3.13,6.48,3.13,11.19,0,3.33-.58,6.21-1.74,8.64-1.16,2.44-2.77,4.47-4.81,6.09-2.05,1.62-4.49,2.78-7.31,3.48-2.82.7-5.94,1.04-9.34,1.04-4.49,0-8.22-.43-11.19-1.28-2.98-.85-5.34-2.13-7.08-3.83-1.74-1.7-2.96-3.77-3.65-6.21-.7-2.44-1.04-5.16-1.04-8.18v-2.2h14.38v2.09Z"/><path d="m651.88,512.34v17.87h9.28v10.9h-9.28v33.76c0,2.48.37,4.23,1.1,5.28.73,1.04,2.26,1.57,4.58,1.57.62,0,1.24-.02,1.86-.06.62-.04,1.2-.1,1.74-.17v11.14c-1.78,0-3.5.06-5.16.17-1.66.12-3.42.17-5.28.17-3.09,0-5.63-.21-7.6-.64s-3.48-1.28-4.52-2.55c-1.04-1.28-1.76-2.96-2.15-5.05-.39-2.09-.58-4.72-.58-7.89v-35.73h-8.12v-10.9h8.12v-17.87h16.01Z"/><path d="m685.05,508.86v13.69h-16.01v-13.69h16.01Zm0,21.34v62.41h-16.01v-62.41h16.01Z"/><path d="m714.63,553.52h.23l16.12-23.32h17.63l-17.98,24.59,20.65,37.82h-17.63l-13.34-25.64-5.68,7.42v18.21h-16.01v-82.83h16.01v43.73Z"/><path d="m774.02,592.62h-15.31v-18.1h15.31v18.1Z"/><path d="m819.15,586c-1.78,2.94-3.77,4.99-5.97,6.15s-4.93,1.74-8.18,1.74c-6.57,0-11.41-2.51-14.5-7.54-3.09-5.03-4.64-13.34-4.64-24.94s1.55-19.97,4.64-25.11c3.09-5.14,7.93-7.71,14.5-7.71,3.02,0,5.59.62,7.71,1.86,2.13,1.24,4.04,3.09,5.74,5.57h.23v-26.22h16.01v82.83h-15.31v-6.61h-.23Zm-15.72-9.22c1.04,3.44,3.31,5.16,6.79,5.16s5.86-1.72,6.9-5.16c1.04-3.44,1.57-8.56,1.57-15.37s-.52-11.93-1.57-15.37c-1.04-3.44-3.35-5.16-6.9-5.16s-5.74,1.72-6.79,5.16c-1.04,3.44-1.57,8.57-1.57,15.37s.52,11.93,1.57,15.37Z"/><path d="m860.79,568.83c0,1.86.13,3.65.41,5.39.27,1.74.71,3.29,1.33,4.64.62,1.35,1.43,2.44,2.44,3.25,1,.81,2.24,1.22,3.71,1.22,2.71,0,4.68-.97,5.92-2.9,1.24-1.93,2.09-4.87,2.55-8.82h14.38c-.31,7.27-2.24,12.8-5.8,16.59-3.56,3.79-9.16,5.68-16.82,5.68-5.8,0-10.32-.97-13.57-2.9s-5.65-4.48-7.19-7.66c-1.55-3.17-2.49-6.73-2.84-10.67-.35-3.94-.52-7.89-.52-11.83,0-4.18.29-8.2.87-12.06.58-3.87,1.74-7.31,3.48-10.33,1.74-3.02,4.23-5.41,7.48-7.19,3.25-1.78,7.58-2.67,12.99-2.67,4.64,0,8.45.75,11.43,2.26,2.98,1.51,5.32,3.64,7.02,6.38,1.7,2.75,2.86,6.07,3.48,9.98.62,3.91.93,8.26.93,13.05v3.6h-31.67v4.99Zm15.89-20.82c-.23-1.82-.64-3.36-1.22-4.64s-1.39-2.24-2.44-2.9c-1.04-.66-2.38-.99-4-.99s-2.96.37-4,1.1c-1.04.74-1.88,1.7-2.49,2.9-.62,1.2-1.06,2.53-1.33,4-.27,1.47-.41,2.94-.41,4.41v2.44h16.36c-.08-2.4-.23-4.5-.46-6.32Z"/><path d="m905.27,537.38c-3.15-3.15-4.73-6.96-4.73-11.43s1.58-8.28,4.73-11.43c3.15-3.15,6.96-4.73,11.43-4.73s8.28,1.58,11.43,4.73c3.15,3.15,4.73,6.96,4.73,11.43s-1.58,8.28-4.73,11.43c-3.15,3.15-6.96,4.73-11.43,4.73s-8.28-1.57-11.43-4.73Zm2.03-1.85c2.58,2.64,5.72,3.96,9.41,3.96s6.82-1.32,9.41-3.96c2.58-2.64,3.88-5.84,3.88-9.58s-1.29-6.94-3.88-9.58c-2.59-2.64-5.72-3.96-9.41-3.96s-6.82,1.32-9.41,3.96c-2.59,2.64-3.88,5.84-3.88,9.58s1.29,6.94,3.88,9.58Zm15.64-6.19h2.61c-.29,2.15-1.23,3.81-2.83,4.99-1.6,1.18-3.51,1.76-5.75,1.76-2.93,0-5.26-.92-6.97-2.77-1.71-1.84-2.57-4.26-2.57-7.25s.86-5.41,2.57-7.25c1.71-1.84,4.04-2.77,6.97-2.77,2.27,0,4.19.58,5.77,1.74,1.58,1.16,2.52,2.83,2.81,5.01h-2.61c-.26-1.19-.93-2.18-2-2.96-1.07-.78-2.4-1.18-3.96-1.18-2,0-3.61.71-4.84,2.13-1.22,1.42-1.83,3.18-1.83,5.27s.61,3.85,1.83,5.27c1.22,1.42,2.83,2.13,4.84,2.13,1.57,0,2.89-.39,3.96-1.18,1.07-.78,1.74-1.77,2-2.96Z"/></svg>