<?xml version="1.0" encoding="UTF-8"?>
<svg id="Ebene_1" data-name="Ebene 1" xmlns="http://www.w3.org/2000/svg" xmlns:xlink="http://www.w3.org/1999/xlink" viewBox="0 0 800 800">
  <defs>
    <style>
      .cls-1 {
        fill: none;
      }

      .cls-2 {
        fill: #2b2b2a;
      }

      .cls-3 {
        clip-path: url(#clippath-1);
      }

      .cls-4 {
        clip-path: url(#clippath-2);
      }

      .cls-5 {
        clip-path: url(#clippath);
      }
    </style>
    <clipPath id="clippath">
      <rect class="cls-1" x="94" y="208.26" width="612" height="383.48"/>
    </clipPath>
    <clipPath id="clippath-1">
      <rect class="cls-1" x="94" y="208.26" width="612" height="383.48"/>
    </clipPath>
    <clipPath id="clippath-2">
      <rect class="cls-1" x="94" y="208.26" width="612" height="383.48"/>
    </clipPath>
  </defs>
  <g class="cls-5">
    <g class="cls-3">
      <path class="cls-2" d="M636.14,350.94c4.79,0,9.53.24,14.04.62v43.09c-4.47-.37-9.19-.6-14.04-.61v-43.11Z"/>
      <path class="cls-2" d="M650.17,505.8v-103.34c-4.5-.39-9.24-.62-14.04-.62v103.96h14.04Z"/>
      <path class="cls-2" d="M636.14,302.64c4.79,0,9.53.24,14.04.62v40.51c-4.47-.36-9.19-.6-14.04-.61v-40.52Z"/>
      <path class="cls-2" d="M636.14,264.3v30.56c4.85,0,9.56.24,14.04.61v-31.17h-14.04Z"/>
      <path class="cls-2" d="M603.63,352.27c-2.59.54-4.93,1.06-7.15,1.56v-43.92c2.65-.64,5.57-1.28,8.86-1.97,3.81-.78,7.81-1.3,11.88-1.6v44.11c-4.59.32-9.16.9-13.59,1.82"/>
      <path class="cls-2" d="M617.21,414.33v47.9h-20.73v-44.33c2.66-.64,5.56-1.29,8.86-1.97,3.8-.8,7.8-1.31,11.87-1.61"/>
      <path class="cls-2" d="M605.34,360.53c3.81-.79,7.81-1.3,11.87-1.61v46.93c-4.58.32-9.15.89-13.58,1.81-2.59.54-4.93,1.06-7.15,1.57v-46.74c2.66-.64,5.57-1.28,8.86-1.97"/>
      <path class="cls-2" d="M596.48,264.3v36.95c2.21-.51,4.55-1.03,7.14-1.57,4.43-.92,9.01-1.5,13.59-1.81v-33.57h-20.73Z"/>
      <path class="cls-2" d="M581.84,421.21v41.02h-29.82v-25.91c2.68-1.51,5.09-2.88,7.29-4.15,8.86-5.06,14.37-8.21,22.54-10.97"/>
      <path class="cls-2" d="M555.12,369.46c-.99.57-2.03,1.16-3.11,1.77v-42.89c2.68-1.51,5.1-2.89,7.3-4.15,8.86-5.07,14.35-8.21,22.53-10.97v43.72c-10.48,3.23-16.61,6.73-26.73,12.51"/>
      <path class="cls-2" d="M559.31,376.78c8.86-5.07,14.37-8.21,22.54-10.97v46.52c-10.47,3.23-16.61,6.73-26.73,12.51-.98.56-2.02,1.17-3.1,1.77v-45.71c2.68-1.5,5.09-2.89,7.29-4.14"/>
      <path class="cls-2" d="M559.31,265.99c-2.2,1.25-4.62,2.63-7.29,4.14v48.52c1.07-.61,2.11-1.21,3.1-1.77,10.12-5.79,16.25-9.28,26.73-12.51v-40.06h-19.57c-.97.56-1.89,1.08-2.96,1.69"/>
      <path class="cls-2" d="M537.38,462.23h-16.73v-13.15c6.52-3.12,12.14-6.21,16.73-8.8v21.95Z"/>
      <path class="cls-2" d="M537.38,384.89v45.71l-1.92,1.09c-4,2.26-8.99,5.07-14.81,7.99v-46c6.52-3.12,12.14-6.22,16.73-8.8"/>
      <path class="cls-2" d="M520.65,384.28v-43.18c6.52-3.12,12.15-6.22,16.73-8.8v42.9l-1.93,1.09c-4,2.26-8.99,5.07-14.8,7.99"/>
      <path class="cls-2" d="M537.38,274.09c-4.59,2.59-10.22,5.67-16.74,8.8v48.81c5.82-2.92,10.82-5.74,14.81-7.99l1.93-1.09v-48.53Z"/>
      <path class="cls-2" d="M520.64,264.3v9.19c5.82-2.92,10.82-5.74,14.81-7.99l1.93-1.09v-.11h-16.74Z"/>
      <path class="cls-2" d="M506.01,445.41c-9.8,4.1-21.1,7.82-33.47,9.82v-46.87c12.31-1.86,23.57-5.31,33.47-9.23v46.28Z"/>
      <path class="cls-2" d="M506.01,390.01c-9.8,4.1-21.1,7.82-33.47,9.82v-44.05c12.31-1.86,23.57-5.31,33.47-9.23v43.46Z"/>
      <path class="cls-2" d="M506.01,462.23h-25.22c9.11-1.95,17.59-4.68,25.22-7.7v7.7Z"/>
      <path class="cls-2" d="M506.01,288.34c-9.9,3.92-21.17,7.37-33.47,9.23v49.68c12.37-2,23.66-5.71,33.47-9.81v-49.09Z"/>
      <path class="cls-2" d="M472.54,264.3v24.73c12.37-1.99,23.66-5.72,33.47-9.82v-14.91h-33.47Z"/>
      <path class="cls-2" d="M430.78,386.28c0,25.2,0,50.4-.02,75.6h27.14c0-34.53,0-69.07,0-103.61,0-31.31,0-62.64,0-93.96h-27.12v17.17c0,34.94,0,69.87,0,104.81"/>
      <rect class="cls-2" x="404.85" y="264.3" width="11.28" height="197.57"/>
      <rect class="cls-2" x="378.94" y="264.3" width="11.28" height="197.57"/>
      <path class="cls-2" d="M337.17,358.26c0,34.54,0,69.08,0,103.61h27.14c0-25.2,0-50.4,0-75.6,0-34.93,0-69.86-.02-104.81,0-5.72,0-11.45,0-17.17h-27.12v93.96Z"/>
      <path class="cls-2" d="M289.06,445.41c9.8,4.1,21.1,7.82,33.47,9.82v-46.87c-12.31-1.86-23.58-5.31-33.47-9.23v46.28Z"/>
      <path class="cls-2" d="M289.06,390.01c9.8,4.1,21.1,7.82,33.47,9.82v-44.05c-12.31-1.86-23.58-5.31-33.47-9.23v43.46Z"/>
      <path class="cls-2" d="M289.06,462.23h25.22c-9.11-1.95-17.58-4.68-25.22-7.7v7.7Z"/>
      <path class="cls-2" d="M322.53,297.57c-12.31-1.86-23.58-5.31-33.47-9.23v49.09c9.8,4.1,21.1,7.82,33.47,9.81v-49.67Z"/>
      <path class="cls-2" d="M289.06,264.3v14.91c9.8,4.1,21.1,7.83,33.47,9.82v-24.73h-33.47Z"/>
      <path class="cls-2" d="M257.7,462.23h16.73v-13.15c-6.52-3.12-12.14-6.21-16.73-8.8v21.95Z"/>
      <path class="cls-2" d="M257.7,384.89v45.71l1.92,1.09c4,2.26,8.99,5.07,14.81,7.99v-46c-6.52-3.12-12.14-6.22-16.73-8.8"/>
      <path class="cls-2" d="M274.43,384.28v-43.18c-6.52-3.12-12.15-6.22-16.73-8.8v42.9l1.93,1.09c4,2.26,8.99,5.07,14.8,7.99"/>
      <path class="cls-2" d="M274.43,282.88c-6.52-3.12-12.14-6.21-16.73-8.8v48.53l1.93,1.09c3.99,2.26,8.98,5.07,14.8,7.99v-48.81Z"/>
      <path class="cls-2" d="M257.7,264.3v.11l1.93,1.09c3.99,2.26,8.98,5.07,14.8,7.99v-9.19h-16.73Z"/>
      <path class="cls-2" d="M213.23,421.21v41.02h29.82v-25.91c-2.68-1.51-5.09-2.88-7.29-4.15-8.86-5.06-14.37-8.21-22.54-10.97"/>
      <path class="cls-2" d="M239.96,369.46c.99.57,2.03,1.16,3.11,1.77v-42.89c-2.68-1.51-5.1-2.89-7.3-4.15-8.86-5.07-14.35-8.21-22.53-10.97v43.72c10.48,3.23,16.6,6.73,26.72,12.51"/>
      <path class="cls-2" d="M235.77,376.78c-8.86-5.07-14.37-8.21-22.54-10.97v46.52c10.47,3.23,16.61,6.73,26.73,12.51.98.56,2.02,1.17,3.1,1.77v-45.71c-2.68-1.5-5.09-2.89-7.29-4.14"/>
      <path class="cls-2" d="M213.24,264.3v40.06c10.47,3.23,16.6,6.72,26.72,12.51.99.57,2.03,1.17,3.11,1.77v-48.52c-2.68-1.51-5.09-2.88-7.29-4.14-1.07-.61-2-1.13-2.98-1.69h-19.56Z"/>
      <path class="cls-2" d="M191.45,352.27c2.58.54,4.93,1.06,7.15,1.56v-43.92c-2.65-.64-5.57-1.28-8.86-1.97-3.81-.78-7.81-1.3-11.87-1.6v44.11c4.59.32,9.16.9,13.59,1.82"/>
      <path class="cls-2" d="M177.87,414.33v47.9h20.73v-44.33c-2.65-.64-5.56-1.29-8.86-1.97-3.8-.8-7.8-1.31-11.87-1.61"/>
      <path class="cls-2" d="M189.74,360.53c-3.81-.79-7.81-1.3-11.87-1.61v46.93c4.58.32,9.15.89,13.58,1.81,2.59.54,4.93,1.06,7.15,1.57v-46.74c-2.66-.64-5.57-1.28-8.86-1.97"/>
      <path class="cls-2" d="M177.87,264.3v33.57c4.58.31,9.15.89,13.58,1.81,2.59.54,4.93,1.06,7.15,1.57v-36.95h-20.73Z"/>
      <path class="cls-2" d="M158.93,350.94c-4.79,0-9.53.24-14.04.62v43.09c4.47-.37,9.2-.6,14.04-.61v-43.11Z"/>
      <path class="cls-2" d="M158.93,505.8v-103.96c-4.79,0-9.53.23-14.04.62v103.34h14.04Z"/>
      <path class="cls-2" d="M158.93,302.64c-4.79,0-9.53.24-14.04.62v40.51c4.47-.36,9.2-.6,14.04-.61v-40.52Z"/>
      <path class="cls-2" d="M144.9,264.3v31.17c4.46-.37,9.19-.61,14.04-.61v-30.56h-14.04Z"/>
      <polygon class="cls-2" points="699.95 278.79 706 278.79 706 208.26 618.8 208.26 618.8 214.31 699.95 214.31 699.95 278.79"/>
      <polygon class="cls-2" points="699.95 531.05 699.95 585.69 618.8 585.69 618.8 591.74 706 591.74 706 531.05 699.95 531.05"/>
      <polygon class="cls-2" points="100.05 531.05 94 531.05 94 591.74 181.21 591.74 181.21 585.69 100.05 585.69 100.05 531.05"/>
      <polygon class="cls-2" points="94 208.26 94 278.79 100.05 278.79 100.05 214.31 181.21 214.31 181.21 208.26 94 208.26"/>
    </g>
    <g>
      <path d="M186.36,505.64v4.68h.13c.91-1.69,2.02-3.05,3.32-4.07,1.3-1.02,2.88-1.53,4.75-1.53.26,0,.53.01.81.03.28.02.55.05.81.1v8.59c-.48-.04-.94-.08-1.4-.1-.46-.02-.92-.03-1.4-.03-.78,0-1.56.11-2.34.33-.78.22-1.5.58-2.15,1.07-.65.5-1.17,1.15-1.56,1.95-.39.8-.59,1.79-.59,2.96v21.01h-8.98v-35h8.59Z"/>
      <path d="M200.35,515.52c0-2.04.33-3.74.98-5.11.65-1.37,1.53-2.47,2.63-3.32,1.11-.85,2.41-1.45,3.9-1.82,1.5-.37,3.09-.55,4.78-.55,2.69,0,4.86.26,6.51.78,1.65.52,2.93,1.26,3.84,2.21.91.96,1.53,2.09,1.85,3.42.33,1.32.49,2.77.49,4.33v18.41c0,1.65.08,2.93.23,3.84.15.91.44,1.89.88,2.93h-8.59c-.3-.56-.53-1.16-.68-1.79-.15-.63-.29-1.25-.42-1.85h-.13c-1.04,1.82-2.24,3-3.61,3.55-1.37.54-3.13.81-5.3.81-1.56,0-2.89-.27-3.97-.81-1.08-.54-1.95-1.29-2.6-2.24-.65-.95-1.13-2.03-1.43-3.22-.3-1.19-.46-2.38-.46-3.55,0-1.65.17-3.07.52-4.26.35-1.19.88-2.21,1.59-3.06.72-.85,1.63-1.55,2.73-2.12,1.11-.56,2.44-1.06,4-1.5l5.07-1.37c1.34-.35,2.28-.82,2.8-1.43.52-.61.78-1.5.78-2.67,0-1.34-.31-2.4-.94-3.16-.63-.76-1.7-1.14-3.22-1.14-1.39,0-2.43.41-3.12,1.24-.69.83-1.04,1.93-1.04,3.32v.98h-8.07v-.85ZM211.15,493.27v7.68h-7.29v-7.68h7.29ZM214.79,524.28c-.69.28-1.32.49-1.89.62-1.82.39-3.12,1.04-3.9,1.95s-1.17,2.15-1.17,3.71c0,1.35.26,2.5.78,3.45.52.96,1.39,1.43,2.6,1.43.61,0,1.24-.1,1.89-.29.65-.2,1.25-.51,1.79-.94.54-.43.99-1,1.33-1.69.35-.69.52-1.52.52-2.47v-6.9c-.61.48-1.26.86-1.95,1.14ZM222.34,493.27v7.68h-7.29v-7.68h7.29Z"/>
      <path d="M250.51,536.93c-1,1.65-2.11,2.8-3.35,3.45-1.24.65-2.77.98-4.59.98-3.69,0-6.4-1.41-8.13-4.23-1.74-2.82-2.6-7.48-2.6-13.99s.87-11.2,2.6-14.09c1.73-2.88,4.45-4.33,8.13-4.33,1.69,0,3.13.35,4.33,1.04,1.19.69,2.27,1.74,3.22,3.12h.13v-14.7h8.98v46.45h-8.59v-3.71h-.13ZM241.69,531.76c.59,1.93,1.85,2.9,3.81,2.9s3.29-.96,3.87-2.9c.59-1.93.88-4.8.88-8.62s-.29-6.69-.88-8.62-1.88-2.9-3.87-2.9-3.22.97-3.81,2.9-.88,4.8-.88,8.62.29,6.69.88,8.62Z"/>
      <path d="M273.8,527.3c0,1.04.08,2.05.23,3.03.15.98.4,1.84.75,2.6.35.76.8,1.37,1.37,1.82.56.46,1.26.68,2.08.68,1.52,0,2.62-.54,3.32-1.63.69-1.08,1.17-2.73,1.43-4.95h8.07c-.17,4.08-1.26,7.18-3.25,9.3-2,2.13-5.14,3.19-9.43,3.19-3.25,0-5.79-.54-7.61-1.63-1.82-1.08-3.17-2.51-4.03-4.29-.87-1.78-1.4-3.77-1.59-5.99s-.29-4.42-.29-6.64c0-2.34.16-4.6.49-6.77.33-2.17.98-4.1,1.95-5.79s2.38-3.04,4.2-4.03c1.82-1,4.25-1.5,7.29-1.5,2.6,0,4.74.42,6.41,1.27,1.67.85,2.98,2.04,3.94,3.58.95,1.54,1.6,3.41,1.95,5.6.35,2.19.52,4.63.52,7.32v2.02h-17.76v2.8ZM282.71,515.62c-.13-1.02-.36-1.89-.68-2.6-.33-.72-.78-1.26-1.37-1.63-.59-.37-1.33-.55-2.24-.55s-1.66.21-2.24.62c-.59.41-1.05.96-1.4,1.63-.35.67-.6,1.42-.75,2.24-.15.83-.23,1.65-.23,2.47v1.37h9.17c-.04-1.34-.13-2.53-.26-3.55Z"/>
      <path d="M305.81,505.64v4.68h.13c.91-1.69,2.02-3.05,3.32-4.07,1.3-1.02,2.88-1.53,4.75-1.53.26,0,.53.01.81.03.28.02.55.05.81.1v8.59c-.48-.04-.94-.08-1.4-.1-.46-.02-.92-.03-1.4-.03-.78,0-1.56.11-2.34.33-.78.22-1.5.58-2.15,1.07-.65.5-1.17,1.15-1.56,1.95-.39.8-.59,1.79-.59,2.96v21.01h-8.98v-35h8.59Z"/>
      <path d="M329.1,494.18v46.45h-8.98v-46.45h8.98Z"/>
      <path d="M335.93,515.2c.48-2.3,1.26-4.22,2.34-5.76,1.08-1.54,2.5-2.71,4.26-3.51,1.76-.8,3.91-1.2,6.47-1.2,2.69-.04,4.92.32,6.7,1.07,1.78.76,3.19,1.92,4.23,3.48s1.78,3.49,2.21,5.79c.43,2.3.65,4.99.65,8.07s-.24,5.64-.72,7.94c-.48,2.3-1.26,4.22-2.34,5.76-1.08,1.54-2.5,2.68-4.26,3.42-1.76.74-3.91,1.11-6.47,1.11-2.69.04-4.92-.29-6.7-1.01-1.78-.72-3.19-1.84-4.23-3.38-1.04-1.54-1.78-3.47-2.21-5.79-.43-2.32-.65-5-.65-8.04s.24-5.64.72-7.94ZM344.33,528.08c.09,1.52.29,2.82.62,3.9.33,1.08.81,1.93,1.46,2.54.65.61,1.52.91,2.6.91,1.82,0,3.08-.95,3.77-2.86.69-1.91,1.04-5.05,1.04-9.43s-.35-7.52-1.04-9.43c-.69-1.91-1.95-2.86-3.77-2.86-1.08,0-1.95.3-2.6.91-.65.61-1.14,1.45-1.46,2.54-.33,1.08-.53,2.39-.62,3.9-.09,1.52-.13,3.17-.13,4.94s.04,3.43.13,4.95Z"/>
      <path d="M394.81,538.88c0,4.51-1.12,7.89-3.35,10.15-2.23,2.25-5.98,3.38-11.22,3.38-3.82,0-6.76-.81-8.82-2.44-2.06-1.63-3.09-3.94-3.09-6.93h8.59c0,1.13.46,2.02,1.37,2.67.43.3.9.54,1.4.71.5.17,1.03.26,1.59.26,1.82,0,3.1-.59,3.84-1.76.74-1.17,1.11-2.62,1.11-4.36v-4.62h-.13c-.91,1.3-2.03,2.34-3.35,3.12-1.32.78-2.7,1.17-4.13,1.17-3.56,0-6.24-1.35-8.04-4.07-1.8-2.71-2.7-7.25-2.7-13.63,0-2.04.12-4.12.36-6.25.24-2.12.74-4.04,1.5-5.76.76-1.71,1.86-3.11,3.32-4.2,1.45-1.08,3.39-1.63,5.82-1.63,1.26,0,2.56.35,3.9,1.04,1.34.69,2.45,1.95,3.32,3.77h.13v-3.9h8.59v33.25ZM377.02,527.69c.11,1.08.33,2.05.65,2.9.33.85.78,1.52,1.37,2.02.59.5,1.35.75,2.31.75s1.75-.25,2.37-.75c.63-.5,1.13-1.18,1.5-2.05.37-.87.63-1.92.78-3.16.15-1.24.23-2.59.23-4.07,0-4.25-.34-7.26-1.01-9.04-.67-1.78-1.9-2.67-3.68-2.67-1,0-1.8.22-2.41.65-.61.43-1.08,1.14-1.43,2.11-.35.98-.58,2.28-.68,3.9-.11,1.63-.16,3.61-.16,5.95,0,1.21.05,2.36.16,3.45Z"/>
      <path d="M411.34,493.66v7.68h-8.98v-7.68h8.98ZM411.34,505.64v35h-8.98v-35h8.98Z"/>
      <path d="M425.2,530.36c0,1.52.4,2.74,1.2,3.68s1.96,1.4,3.48,1.4c1.39,0,2.49-.35,3.32-1.04.82-.69,1.24-1.73,1.24-3.12,0-1.13-.33-1.98-.98-2.57-.65-.59-1.41-1.05-2.28-1.4l-6.31-2.28c-2.47-.87-4.34-2.09-5.6-3.68-1.26-1.58-1.89-3.61-1.89-6.08,0-1.43.24-2.79.72-4.07.48-1.28,1.24-2.4,2.28-3.35,1.04-.95,2.37-1.71,4-2.28,1.63-.56,3.59-.85,5.89-.85,4.08,0,7.09.87,9.04,2.6,1.95,1.74,2.93,4.19,2.93,7.35v1.43h-8.07c0-1.82-.29-3.16-.88-4-.58-.85-1.62-1.27-3.09-1.27-1.13,0-2.12.32-2.96.94-.85.63-1.27,1.57-1.27,2.83,0,.87.27,1.65.81,2.34.54.69,1.57,1.28,3.09,1.76l5.4,1.82c2.82.96,4.81,2.2,5.99,3.74,1.17,1.54,1.76,3.63,1.76,6.28,0,1.87-.33,3.48-.98,4.85s-1.55,2.5-2.7,3.42c-1.15.91-2.52,1.56-4.1,1.95-1.58.39-3.33.59-5.24.59-2.52,0-4.61-.24-6.28-.72-1.67-.48-2.99-1.19-3.97-2.15-.98-.95-1.66-2.11-2.05-3.48s-.59-2.9-.59-4.59v-1.24h8.07v1.17Z"/>
      <path d="M459.42,495.62v10.02h5.21v6.12h-5.21v18.93c0,1.39.21,2.37.62,2.96s1.27.88,2.57.88c.35,0,.69,0,1.04-.03.35-.02.67-.05.98-.1v6.25c-1,0-1.96.03-2.89.1-.93.07-1.92.1-2.96.1-1.74,0-3.16-.12-4.26-.36-1.11-.24-1.95-.71-2.54-1.43s-.99-1.66-1.2-2.83c-.22-1.17-.33-2.65-.33-4.42v-20.04h-4.55v-6.12h4.55v-10.02h8.98Z"/>
      <path d="M478.03,493.66v7.68h-8.98v-7.68h8.98ZM478.03,505.64v35h-8.98v-35h8.98Z"/>
      <path d="M494.62,518.71h.13l9.04-13.08h9.89l-10.08,13.79,11.58,21.21h-9.89l-7.48-14.38-3.19,4.16v10.21h-8.98v-46.45h8.98v24.53Z"/>
      <path d="M527.93,540.64h-8.59v-10.15h8.59v10.15Z"/>
      <path d="M553.24,536.93c-1,1.65-2.12,2.8-3.35,3.45-1.24.65-2.76.98-4.59.98-3.69,0-6.4-1.41-8.13-4.23-1.74-2.82-2.6-7.48-2.6-13.99s.87-11.2,2.6-14.09c1.73-2.88,4.45-4.33,8.13-4.33,1.69,0,3.13.35,4.33,1.04,1.19.69,2.27,1.74,3.22,3.12h.13v-14.7h8.98v46.45h-8.59v-3.71h-.13ZM544.42,531.76c.59,1.93,1.85,2.9,3.81,2.9s3.29-.96,3.87-2.9c.58-1.93.88-4.8.88-8.62s-.29-6.69-.88-8.62c-.59-1.93-1.88-2.9-3.87-2.9s-3.22.97-3.81,2.9-.88,4.8-.88,8.62.29,6.69.88,8.62Z"/>
      <path d="M576.53,527.3c0,1.04.08,2.05.23,3.03.15.98.4,1.84.75,2.6.35.76.8,1.37,1.37,1.82.56.46,1.26.68,2.08.68,1.52,0,2.62-.54,3.32-1.63.69-1.08,1.17-2.73,1.43-4.95h8.07c-.17,4.08-1.26,7.18-3.25,9.3-2,2.13-5.14,3.19-9.43,3.19-3.25,0-5.79-.54-7.61-1.63-1.82-1.08-3.17-2.51-4.03-4.29-.87-1.78-1.4-3.77-1.59-5.99s-.29-4.42-.29-6.64c0-2.34.16-4.6.49-6.77.33-2.17.98-4.1,1.95-5.79.98-1.69,2.37-3.04,4.2-4.03,1.82-1,4.25-1.5,7.29-1.5,2.6,0,4.74.42,6.41,1.27,1.67.85,2.98,2.04,3.94,3.58.95,1.54,1.6,3.41,1.95,5.6.35,2.19.52,4.63.52,7.32v2.02h-17.76v2.8ZM585.44,515.62c-.13-1.02-.36-1.89-.68-2.6s-.78-1.26-1.37-1.63c-.59-.37-1.33-.55-2.24-.55s-1.66.21-2.25.62c-.59.41-1.05.96-1.4,1.63-.35.67-.6,1.42-.75,2.24-.15.83-.23,1.65-.23,2.47v1.37h9.17c-.04-1.34-.13-2.53-.26-3.55Z"/>
    </g>
    <g class="cls-4">
      <path d="M601.74,509.66c-1.77-1.77-2.65-3.9-2.65-6.41s.88-4.65,2.65-6.41c1.77-1.77,3.9-2.65,6.41-2.65s4.65.88,6.41,2.65c1.77,1.77,2.65,3.91,2.65,6.41s-.88,4.65-2.65,6.41-3.9,2.65-6.41,2.65-4.65-.88-6.41-2.65M602.87,508.62c1.45,1.48,3.21,2.22,5.28,2.22s3.83-.74,5.28-2.22c1.45-1.48,2.17-3.27,2.17-5.37s-.72-3.89-2.17-5.37c-1.45-1.48-3.21-2.22-5.28-2.22s-3.83.74-5.28,2.22c-1.45,1.48-2.17,3.27-2.17,5.37s.72,3.89,2.17,5.37M611.64,505.15h1.47c-.16,1.21-.69,2.14-1.59,2.8-.9.66-1.97.99-3.22.99-1.65,0-2.95-.52-3.91-1.55-.96-1.03-1.44-2.39-1.44-4.07s.48-3.03,1.44-4.07c.96-1.03,2.26-1.55,3.91-1.55,1.27,0,2.35.33,3.24.98.89.65,1.41,1.59,1.58,2.81h-1.47c-.15-.67-.52-1.22-1.12-1.66-.6-.44-1.34-.66-2.22-.66-1.12,0-2.03.4-2.71,1.2-.68.8-1.03,1.78-1.03,2.96s.34,2.16,1.03,2.96c.68.8,1.59,1.2,2.71,1.2.88,0,1.62-.22,2.22-.66.6-.44.98-.99,1.12-1.66"/>
    </g>
  </g>
</svg>