<?xml version="1.0" encoding="UTF-8"?>
<svg id="hoteleopon-V2-logo" xmlns="http://www.w3.org/2000/svg" viewBox="0 0 1091.17 683.73">
  <defs>
    <style>
      .cls-1 {
        font-family: HelveticaNeue-CondensedBold, 'Helvetica Neue';
        font-size: 116px;
        font-weight: 700;
        letter-spacing: .02em;
      }

      .cls-1, .cls-2 {
        fill: #fff;
      }

      .cls-2 {
        stroke-width: 0px;
      }
    </style>
  </defs>
  <g>
    <path class="cls-2" d="M966.61,254.4c8.54.02,16.99.42,25.03,1.11v76.84c-7.97-.66-16.39-1.07-25.03-1.08v-76.87h0Z"/>
    <path class="cls-2" d="M991.63,530.49v-184.25c-8.02-.7-16.48-1.1-25.03-1.11v185.36h25.03Z"/>
    <path class="cls-2" d="M966.61,168.27c8.54.02,16.99.42,25.03,1.11v72.23c-7.97-.65-16.39-1.07-25.03-1.08v-72.25h0Z"/>
    <path class="cls-2" d="M966.61,99.92v54.48c8.64.02,17.05.43,25.03,1.1v-55.58h-25.03Z"/>
    <path class="cls-2" d="M908.64,256.76c-4.61.96-8.8,1.89-12.74,2.78v-78.31c4.73-1.13,9.92-2.28,15.79-3.51,6.8-1.4,13.92-2.33,21.18-2.84v78.64c-8.18.57-16.33,1.6-24.23,3.24"/>
    <path class="cls-2" d="M932.86,367.41v85.41h-36.95v-79.03c4.73-1.13,9.91-2.3,15.79-3.51,6.78-1.42,13.91-2.33,21.16-2.87"/>
    <path class="cls-2" d="M911.69,271.49c6.8-1.41,13.92-2.33,21.16-2.87v83.68c-8.17.57-16.31,1.59-24.21,3.23-4.61.96-8.79,1.89-12.74,2.8v-83.33c4.74-1.13,9.93-2.28,15.8-3.51"/>
    <path class="cls-2" d="M895.91,99.92v65.89c3.94-.91,8.12-1.84,12.73-2.8,7.9-1.64,16.06-2.68,24.23-3.23v-59.86h-36.95Z"/>
    <path class="cls-2" d="M869.8,379.68v73.14h-53.18v-46.19c4.79-2.69,9.08-5.14,13-7.39,15.8-9.03,25.61-14.63,40.18-19.55"/>
    <path class="cls-2" d="M822.15,287.41c-1.76,1.01-3.62,2.08-5.54,3.16v-76.47c4.78-2.69,9.09-5.14,13.01-7.39,15.79-9.05,25.59-14.63,40.17-19.55v77.95c-18.69,5.76-29.61,11.99-47.65,22.31"/>
    <path class="cls-2" d="M829.62,300.47c15.8-9.05,25.61-14.63,40.18-19.55v82.95c-18.67,5.76-29.61,11.99-47.65,22.31-1.74,1-3.6,2.08-5.52,3.16v-81.49c4.78-2.67,9.08-5.14,13-7.38"/>
    <path class="cls-2" d="M829.62,102.92c-3.92,2.23-8.23,4.69-13,7.38v86.51c1.91-1.09,3.76-2.15,5.52-3.16,18.05-10.32,28.97-16.55,47.66-22.31v-71.42h-34.9c-1.73.99-3.38,1.92-5.28,3.01"/>
    <path class="cls-2" d="M790.52,452.81h-29.83v-23.44c11.62-5.57,21.65-11.08,29.83-15.69v39.13h0Z"/>
    <path class="cls-2" d="M790.52,314.92v81.5l-3.43,1.94c-7.13,4.03-16.03,9.05-26.4,14.25v-82.01c11.62-5.57,21.65-11.09,29.83-15.68"/>
    <path class="cls-2" d="M760.69,313.84v-76.99c11.62-5.57,21.66-11.09,29.83-15.68v76.48l-3.43,1.94c-7.12,4.03-16.03,9.05-26.4,14.25"/>
    <path class="cls-2" d="M790.53,117.36c-8.18,4.61-18.22,10.11-29.84,15.68v87.03c10.38-5.21,19.29-10.23,26.4-14.25l3.44-1.94v-86.52h0Z"/>
    <path class="cls-2" d="M760.68,99.92v16.38c10.38-5.21,19.29-10.23,26.4-14.25l3.45-1.94v-.19h-29.85Z"/>
    <path class="cls-2" d="M734.59,422.83c-17.48,7.31-37.62,13.94-59.67,17.51v-83.57c21.94-3.32,42.03-9.47,59.67-16.46v82.51h0Z"/>
    <path class="cls-2" d="M734.59,324.06c-17.48,7.31-37.62,13.94-59.67,17.51v-78.55c21.94-3.32,42.03-9.47,59.67-16.45v77.49h0Z"/>
    <path class="cls-2" d="M734.59,452.81h-44.96c16.25-3.48,31.36-8.34,44.96-13.74v13.74h0Z"/>
    <path class="cls-2" d="M734.59,142.77c-17.65,6.98-37.74,13.14-59.67,16.46v88.57c22.06-3.56,42.18-10.18,59.67-17.49v-87.53h0Z"/>
    <path class="cls-2" d="M674.92,99.92v44.1c22.06-3.56,42.18-10.19,59.67-17.51v-26.59h-59.67Z"/>
    <path class="cls-2" d="M600.47,317.39c-.02,44.93-.02,89.86-.03,134.79h48.4c0-61.57-.02-123.15-.02-184.74,0-55.83.02-111.68.02-167.52h-48.35v30.61c0,62.3-.02,124.58-.02,186.86"/>
    <polygon class="cls-2" points="554.22 452.19 574.34 452.19 574.34 99.92 554.22 99.92 554.22 452.19 554.22 452.19"/>
    <polygon class="cls-2" points="508.03 452.19 528.13 452.19 528.13 99.92 508.03 99.92 508.03 452.19 508.03 452.19"/>
    <path class="cls-2" d="M433.56,267.45c0,61.59,0,123.16-.02,184.74h48.39c0-44.93-.02-89.86-.02-134.79-.02-62.28-.02-124.57-.03-186.86,0-10.2.02-20.41.02-30.61h-48.35v167.52h0Z"/>
    <path class="cls-2" d="M347.79,422.83c17.48,7.31,37.62,13.94,59.67,17.51v-83.57c-21.95-3.32-42.04-9.47-59.67-16.46v82.51h0Z"/>
    <path class="cls-2" d="M347.79,324.06c17.48,7.31,37.62,13.94,59.67,17.51v-78.55c-21.95-3.32-42.04-9.47-59.67-16.45v77.49h0Z"/>
    <path class="cls-2" d="M347.79,452.81h44.96c-16.25-3.48-31.35-8.34-44.96-13.74v13.74h0Z"/>
    <path class="cls-2" d="M407.46,159.23c-21.94-3.32-42.04-9.47-59.67-16.46v87.53c17.48,7.31,37.62,13.93,59.67,17.49v-88.57h0Z"/>
    <path class="cls-2" d="M347.79,99.92v26.59c17.48,7.32,37.62,13.96,59.67,17.51v-44.1h-59.67Z"/>
    <path class="cls-2" d="M291.86,452.81h29.83v-23.44c-11.62-5.57-21.65-11.08-29.83-15.69v39.13h0Z"/>
    <path class="cls-2" d="M291.86,314.92v81.5l3.43,1.94c7.13,4.03,16.03,9.05,26.4,14.25v-82.01c-11.62-5.57-21.65-11.09-29.83-15.68"/>
    <path class="cls-2" d="M321.7,313.84v-76.99c-11.62-5.57-21.66-11.09-29.83-15.68v76.48l3.43,1.94c7.12,4.03,16.03,9.05,26.4,14.25"/>
    <path class="cls-2" d="M321.69,133.05c-11.62-5.57-21.65-11.08-29.83-15.68v86.52l3.45,1.94c7.11,4.02,16.01,9.04,26.38,14.25v-87.03h0Z"/>
    <path class="cls-2" d="M291.86,99.92v.19l3.44,1.94c7.11,4.03,16.02,9.04,26.39,14.25v-16.38h-29.83Z"/>
    <path class="cls-2" d="M212.59,379.68v73.14h53.18v-46.19c-4.79-2.69-9.08-5.14-13-7.39-15.8-9.03-25.61-14.63-40.18-19.55"/>
    <path class="cls-2" d="M260.23,287.41c1.76,1.01,3.62,2.08,5.54,3.16v-76.47c-4.78-2.69-9.09-5.14-13.01-7.39-15.79-9.05-25.59-14.63-40.18-19.55v77.95c18.69,5.76,29.6,11.99,47.65,22.31"/>
    <path class="cls-2" d="M252.77,300.47c-15.8-9.05-25.61-14.63-40.18-19.55v82.95c18.67,5.76,29.61,11.99,47.65,22.31,1.74,1,3.6,2.08,5.52,3.16v-81.49c-4.78-2.67-9.08-5.14-13-7.38"/>
    <path class="cls-2" d="M212.59,99.92v71.42c18.67,5.76,29.59,11.99,47.63,22.31,1.77,1.01,3.62,2.08,5.54,3.16v-86.51c-4.79-2.69-9.08-5.14-13-7.38-1.91-1.09-3.56-2.01-5.31-3.01h-34.88Z"/>
    <path class="cls-2" d="M173.75,256.76c4.61.96,8.79,1.89,12.74,2.78v-78.31c-4.73-1.13-9.92-2.28-15.8-3.51-6.8-1.4-13.92-2.33-21.17-2.84v78.64c8.18.57,16.33,1.6,24.23,3.24"/>
    <path class="cls-2" d="M149.53,367.41v85.41h36.95v-79.03c-4.73-1.13-9.91-2.3-15.79-3.51-6.78-1.42-13.91-2.33-21.16-2.87"/>
    <path class="cls-2" d="M170.7,271.49c-6.79-1.41-13.92-2.33-21.16-2.87v83.68c8.17.57,16.31,1.59,24.21,3.23,4.61.96,8.8,1.89,12.75,2.8v-83.33c-4.74-1.13-9.93-2.28-15.8-3.51"/>
    <path class="cls-2" d="M149.54,99.92v59.86c8.17.55,16.31,1.59,24.21,3.23,4.63.96,8.8,1.89,12.74,2.8v-65.89h-36.95Z"/>
    <path class="cls-2" d="M115.77,254.4c-8.54.02-16.99.42-25.03,1.11v76.84c7.98-.66,16.4-1.07,25.03-1.08v-76.87h0Z"/>
    <path class="cls-2" d="M115.77,530.49v-185.36c-8.54.01-16.99.42-25.03,1.11v184.25h25.03Z"/>
    <path class="cls-2" d="M115.77,168.27c-8.54.02-16.99.42-25.03,1.11v72.23c7.98-.65,16.4-1.07,25.03-1.08v-72.25h0Z"/>
    <path class="cls-2" d="M90.75,99.92v55.58c7.96-.66,16.39-1.08,25.03-1.1v-54.48h-25.03Z"/>
    <polygon class="cls-2" points="1080.38 125.75 1091.17 125.75 1091.17 0 935.7 0 935.7 10.79 1080.38 10.79 1080.38 125.75 1080.38 125.75"/>
    <polygon class="cls-2" points="1080.38 575.52 1080.38 672.93 935.7 672.93 935.7 683.73 1091.17 683.73 1091.17 575.52 1080.38 575.52 1080.38 575.52"/>
    <polygon class="cls-2" points="10.79 575.52 0 575.52 0 683.73 155.48 683.73 155.48 672.93 10.79 672.93 10.79 575.52 10.79 575.52"/>
    <polygon class="cls-2" points="0 0 0 125.75 10.79 125.75 10.79 10.79 155.48 10.79 155.48 0 0 0 0 0"/>
  </g>
  <g>
    <text class="cls-1" transform="translate(144.02 592.62)"><tspan x="0" y="0">räderlogistik.de</tspan></text>
    <path class="cls-2" d="M905.27,537.38c-3.15-3.15-4.73-6.96-4.73-11.43s1.58-8.28,4.73-11.43c3.15-3.15,6.96-4.73,11.43-4.73s8.28,1.58,11.43,4.73c3.15,3.15,4.73,6.96,4.73,11.43s-1.58,8.28-4.73,11.43c-3.15,3.15-6.96,4.73-11.43,4.73s-8.28-1.57-11.43-4.73ZM907.3,535.53c2.58,2.64,5.72,3.96,9.41,3.96s6.82-1.32,9.41-3.96c2.58-2.64,3.88-5.84,3.88-9.58s-1.29-6.94-3.88-9.58c-2.59-2.64-5.72-3.96-9.41-3.96s-6.82,1.32-9.41,3.96c-2.59,2.64-3.88,5.84-3.88,9.58s1.29,6.94,3.88,9.58ZM922.94,529.35h2.61c-.29,2.15-1.23,3.81-2.83,4.99-1.6,1.18-3.51,1.76-5.75,1.76-2.93,0-5.26-.92-6.97-2.77-1.71-1.84-2.57-4.26-2.57-7.25s.86-5.41,2.57-7.25c1.71-1.84,4.04-2.77,6.97-2.77,2.27,0,4.19.58,5.77,1.74,1.58,1.16,2.52,2.83,2.81,5.01h-2.61c-.26-1.19-.93-2.18-2-2.96-1.07-.78-2.4-1.18-3.96-1.18-2,0-3.61.71-4.84,2.13-1.22,1.42-1.83,3.18-1.83,5.27s.61,3.85,1.83,5.27c1.22,1.42,2.83,2.13,4.84,2.13,1.57,0,2.89-.39,3.96-1.18,1.07-.78,1.74-1.77,2-2.96Z"/>
  </g>
</svg>